<svg width="37" height="36" viewBox="0 0 37 36" fill="none" xmlns="http://www.w3.org/2000/svg">
<path d="M12.4374 17.8902C12.4374 14.623 15.0868 11.9738 18.3559 11.9738C21.625 11.9738 24.2758 14.623 24.2758 17.8902C24.2758 21.1573 21.625 23.8065 18.3559 23.8065C15.0868 23.8065 12.4374 21.1573 12.4374 17.8902ZM9.23725 17.8902C9.23725 22.9234 13.3196 27.0033 18.3559 27.0033C23.3921 27.0033 27.4745 22.9234 27.4745 17.8902C27.4745 12.8569 23.3921 8.77699 18.3559 8.77699C13.3196 8.77699 9.23725 12.8569 9.23725 17.8902ZM25.7045 8.41565C25.7043 8.83686 25.8292 9.24867 26.0632 9.59899C26.2972 9.94932 26.6299 10.2224 27.0192 10.3838C27.4085 10.5451 27.837 10.5875 28.2504 10.5055C28.6638 10.4234 29.0436 10.2208 29.3417 9.92303C29.6399 9.62531 29.843 9.24591 29.9254 8.83282C30.0078 8.41973 29.9657 7.9915 29.8046 7.60228C29.6435 7.21306 29.3705 6.88034 29.0201 6.64618C28.6698 6.41203 28.2578 6.28696 27.8364 6.28679H27.8355C27.2706 6.28705 26.7288 6.5114 26.3293 6.91056C25.9297 7.30971 25.705 7.85104 25.7045 8.41565ZM11.1816 32.3363C9.4502 32.2575 8.50916 31.9692 7.88378 31.7257C7.05469 31.4032 6.46313 31.019 5.84116 30.3982C5.2192 29.7775 4.8342 29.1868 4.51285 28.3582C4.26906 27.7335 3.98067 26.7928 3.90196 25.0624C3.81587 23.1917 3.79868 22.6297 3.79868 17.8903C3.79868 13.1508 3.81729 12.5904 3.90196 10.7181C3.98081 8.98783 4.27134 8.04891 4.51285 7.42235C4.83562 6.59375 5.22005 6.00254 5.84116 5.38095C6.46227 4.75936 7.05327 4.37459 7.88378 4.05343C8.50887 3.8098 9.4502 3.52157 11.1816 3.44292C13.0534 3.35688 13.6157 3.3397 18.3559 3.3397C23.096 3.3397 23.6589 3.3583 25.5323 3.44292C27.2637 3.52172 28.2032 3.81207 28.8301 4.05343C29.6592 4.37459 30.2508 4.76021 30.8727 5.38095C31.4947 6.00169 31.8783 6.59375 32.201 7.42235C32.4448 8.04706 32.7332 8.98783 32.8119 10.7181C32.898 12.5904 32.9152 13.1508 32.9152 17.8903C32.9152 22.6297 32.898 23.1901 32.8119 25.0624C32.7331 26.7928 32.4433 27.7332 32.201 28.3582C31.8783 29.1868 31.4938 29.778 30.8727 30.3982C30.2516 31.0184 29.6592 31.4032 28.8301 31.7257C28.205 31.9694 27.2637 32.2576 25.5323 32.3363C23.6605 32.4223 23.0982 32.4395 18.3559 32.4395C13.6136 32.4395 13.0528 32.4223 11.1816 32.3363ZM11.0345 0.250057C9.14405 0.336098 7.85225 0.635677 6.7241 1.0744C5.55575 1.52746 4.56669 2.13528 3.57834 3.12147C2.58999 4.10767 1.98337 5.0977 1.53003 6.26535C1.09105 7.39353 0.791292 8.68385 0.7052 10.5732C0.617688 12.4655 0.597656 13.0705 0.597656 17.8902C0.597656 22.7098 0.617688 23.3148 0.7052 25.2071C0.791292 27.0966 1.09105 28.3868 1.53003 29.515C1.98337 30.6819 2.59013 31.6731 3.57834 32.6588C4.56655 33.6446 5.55575 34.2516 6.7241 34.7059C7.85438 35.1446 9.14405 35.4442 11.0345 35.5302C12.929 35.6163 13.5333 35.6377 18.3559 35.6377C23.1784 35.6377 23.7838 35.6177 25.6772 35.5302C27.5679 35.4442 28.8588 35.1446 29.9877 34.7059C31.1553 34.2516 32.1451 33.645 33.1334 32.6588C34.1218 31.6726 34.7271 30.6819 35.1817 29.515C35.6207 28.3868 35.9219 27.0965 36.0066 25.2071C36.0927 23.3134 36.1127 22.7098 36.1127 17.8902C36.1127 13.0705 36.0927 12.4655 36.0066 10.5732C35.9205 8.68371 35.6207 7.39282 35.1817 6.26535C34.7271 5.09841 34.1202 4.10923 33.1334 3.12147C32.1466 2.13371 31.1553 1.52746 29.9891 1.0744C28.8588 0.635677 27.5677 0.334678 25.6787 0.250057C23.7852 0.164017 23.1799 0.142578 18.3573 0.142578C13.5347 0.142578 12.929 0.162597 11.0345 0.250057Z" fill="#E7E7E7"/>
</svg>
