<svg width="34" height="28" viewBox="0 0 34 28" fill="none" xmlns="http://www.w3.org/2000/svg">
<path d="M33.1404 3.50034C32.0672 3.96223 30.9388 4.28386 29.7834 4.45729C30.3236 4.36468 31.1185 3.3923 31.4349 2.99871C31.9156 2.40503 32.2819 1.72729 32.5153 0.999928C32.5153 0.945907 32.5693 0.868734 32.5153 0.830147C32.4881 0.815287 32.4576 0.8075 32.4265 0.8075C32.3955 0.8075 32.365 0.815287 32.3378 0.830147C31.0831 1.5096 29.7478 2.02817 28.3634 2.37361C28.3151 2.38835 28.2638 2.38967 28.2148 2.37744C28.1659 2.3652 28.1212 2.33987 28.0856 2.30416C27.9778 2.17584 27.8618 2.05468 27.7383 1.94144C27.1736 1.43553 26.533 1.02147 25.8398 0.714387C24.9041 0.33051 23.8934 0.164262 22.8841 0.228196C21.9047 0.290049 20.9485 0.552738 20.075 0.999928C19.2148 1.4714 18.4588 2.1119 17.8524 2.88295C17.2145 3.67656 16.754 4.59757 16.5019 5.58402C16.2939 6.52233 16.2703 7.49211 16.4324 8.43942C16.4324 8.60149 16.4324 8.62464 16.2935 8.60149C10.791 7.79117 6.27642 5.83869 2.58754 1.64818C2.42548 1.46297 2.34059 1.46297 2.20939 1.64818C0.604189 4.08686 1.38364 7.94551 3.39014 9.85169C3.66025 10.1064 3.93807 10.3533 4.23133 10.5848C3.31136 10.5195 2.41386 10.2702 1.59201 9.85169C1.43766 9.75137 1.35277 9.80539 1.34505 9.9906C1.32317 10.2474 1.32317 10.5056 1.34505 10.7623C1.50608 11.9929 1.99105 13.1587 2.75038 14.1404C3.5097 15.1221 4.51613 15.8845 5.66675 16.3497C5.94724 16.4698 6.23951 16.5603 6.53881 16.6198C5.68714 16.7875 4.81365 16.8135 3.9535 16.697C3.76829 16.6584 3.69883 16.7587 3.76829 16.9362C4.90273 20.0231 7.36456 20.9646 9.17041 21.4894C9.41737 21.528 9.66432 21.528 9.94214 21.5897C9.94214 21.5897 9.94214 21.5897 9.89584 21.636C9.36334 22.6084 7.21021 23.2644 6.2224 23.604C4.41938 24.2516 2.49702 24.4991 0.588755 24.3294C0.287779 24.2831 0.218323 24.2908 0.14115 24.3294C0.063977 24.368 0.14115 24.4529 0.226041 24.53C0.611907 24.7847 0.997772 25.0085 1.39907 25.2246C2.59375 25.8762 3.85676 26.3938 5.16512 26.7681C11.9409 28.6356 19.5656 27.262 24.6514 22.2071C28.6489 18.2404 30.0535 12.7688 30.0535 7.28954C30.0535 7.08117 30.3081 6.9577 30.4548 6.84966C31.4661 6.06163 32.3578 5.131 33.1018 4.08686C33.2307 3.93121 33.2967 3.73304 33.287 3.53121C33.287 3.41545 33.287 3.4386 33.1404 3.50034Z" fill="#E7E7E7"/>
</svg>
